<svg width="65" height="64" viewBox="0 0 65 64" fill="none" xmlns="http://www.w3.org/2000/svg">
<path fill-rule="evenodd" clip-rule="evenodd" d="M0.242126 32C0.242126 14.3269 14.5691 0 32.2421 0C49.9152 0 64.2421 14.3269 64.2421 32C64.2421 49.6731 49.9152 64 32.2421 64C14.5691 64 0.242126 49.6731 0.242126 32ZM35.5776 38.2732L37.5577 36.297C37.9952 35.8653 38.5475 35.5677 39.1491 35.4397C39.7508 35.3116 40.3767 35.3584 40.9526 35.5744C42.4123 36.118 43.929 36.4951 45.4737 36.6984C46.2553 36.8085 46.9691 37.2014 47.4793 37.8024C47.9896 38.4034 48.2607 39.1706 48.2411 39.9581V44.7754C48.243 45.2226 48.1512 45.6653 47.9717 46.0751C47.7921 46.4848 47.5289 46.8526 47.1987 47.155C46.8685 47.4573 46.4786 47.6875 46.0542 47.8307C45.6297 47.974 45.1799 48.0272 44.7336 47.987C41.5686 47.6437 38.4833 46.8299 35.5776 45.5809C33.938 44.8761 32.3556 44.0328 30.8484 43.0573C29.9943 42.5156 29.1688 41.9342 28.3743 41.3155C25.5525 39.118 23.1222 36.4501 21.1947 33.4227C18.4755 29.2336 16.7833 24.4641 16.2552 19.5007C16.215 19.0567 16.2679 18.6091 16.4104 18.1866C16.553 17.7641 16.7822 17.3758 17.0834 17.0465C17.3846 16.7172 17.7512 16.4541 18.1598 16.274C18.5685 16.0938 19.0103 16.0006 19.457 16.0002H24.2839C25.0647 15.9925 25.8217 16.2684 26.4137 16.7766C27.0058 17.2847 27.3925 17.9904 27.5018 18.7621C27.6776 20.0928 27.9832 21.4027 28.4138 22.6731C28.3872 23.0375 28.3743 23.4148 28.3743 23.8048V26.0582C28.2428 26.2765 28.0852 26.4795 27.904 26.6624L27.1581 27.4068L25.8606 28.7017C28.1511 32.7218 31.4862 36.0504 35.5143 38.3363L35.5776 38.2732Z" fill="#1BAC5E"/>
</svg>
