<svg width="65" height="64" viewBox="0 0 65 64" fill="none" xmlns="http://www.w3.org/2000/svg">
<path fill-rule="evenodd" clip-rule="evenodd" d="M0.242126 32C0.242126 49.6731 14.5691 64 32.2421 64C49.9152 64 64.2421 49.6731 64.2421 32C64.2421 14.3269 49.9152 0 32.2421 0C14.5691 0 0.242126 14.3269 0.242126 32ZM26.3755 46.6667L26.9199 38.5097L26.9195 38.5093L41.758 25.1187C42.4092 24.5407 41.6159 24.2588 40.7513 24.7831L22.4385 36.3364L14.5284 33.8676C12.8201 33.3445 12.8079 32.1707 14.9119 31.3268L45.7359 19.4412C47.1437 18.802 48.5025 19.7793 47.9651 21.934L42.7157 46.6708C42.3492 48.4287 41.2871 48.8491 39.8155 48.0371L31.8191 42.1292L27.9755 45.8667C27.9633 45.8784 27.9513 45.8901 27.9393 45.9019C27.5095 46.3204 27.1537 46.6667 26.3755 46.6667Z" fill="#1BAC5E"/>
</svg>
